<svg width="40" height="30" viewBox="0 0 40 30" fill="none" xmlns="http://www.w3.org/2000/svg">
<path d="M8.33333 0H11.6667V3.33333H8.33333V11.6667C8.33333 12.5507 7.98214 13.3986 7.35702 14.0237C6.7319 14.6488 5.88405 15 5 15C5.88405 15 6.7319 15.3512 7.35702 15.9763C7.98214 16.6014 8.33333 17.4493 8.33333 18.3333V26.6667H11.6667V30H8.33333C6.55 29.55 5 28.5 5 26.6667V20C5 19.1159 4.64881 18.2681 4.02369 17.643C3.39857 17.0179 2.55072 16.6667 1.66667 16.6667H0V13.3333H1.66667C2.55072 13.3333 3.39857 12.9821 4.02369 12.357C4.64881 11.7319 5 10.8841 5 10V3.33333C5 2.44928 5.35119 1.60143 5.97631 0.976311C6.60143 0.351189 7.44928 0 8.33333 0ZM31.6667 0C32.5507 0 33.3986 0.351189 34.0237 0.976311C34.6488 1.60143 35 2.44928 35 3.33333V10C35 10.8841 35.3512 11.7319 35.9763 12.357C36.6014 12.9821 37.4493 13.3333 38.3333 13.3333H40V16.6667H38.3333C37.4493 16.6667 36.6014 17.0179 35.9763 17.643C35.3512 18.2681 35 19.1159 35 20V26.6667C35 27.5507 34.6488 28.3986 34.0237 29.0237C33.3986 29.6488 32.5507 30 31.6667 30H28.3333V26.6667H31.6667V18.3333C31.6667 17.4493 32.0179 16.6014 32.643 15.9763C33.2681 15.3512 34.1159 15 35 15C34.1159 15 33.2681 14.6488 32.643 14.0237C32.0179 13.3986 31.6667 12.5507 31.6667 11.6667V3.33333H28.3333V0H31.6667ZM20 20C20.442 20 20.8659 20.1756 21.1785 20.4882C21.4911 20.8007 21.6667 21.2246 21.6667 21.6667C21.6667 22.1087 21.4911 22.5326 21.1785 22.8452C20.8659 23.1577 20.442 23.3333 20 23.3333C19.558 23.3333 19.134 23.1577 18.8215 22.8452C18.5089 22.5326 18.3333 22.1087 18.3333 21.6667C18.3333 21.2246 18.5089 20.8007 18.8215 20.4882C19.134 20.1756 19.558 20 20 20ZM13.3333 20C13.7754 20 14.1993 20.1756 14.5118 20.4882C14.8244 20.8007 15 21.2246 15 21.6667C15 22.1087 14.8244 22.5326 14.5118 22.8452C14.1993 23.1577 13.7754 23.3333 13.3333 23.3333C12.8913 23.3333 12.4674 23.1577 12.1548 22.8452C11.8423 22.5326 11.6667 22.1087 11.6667 21.6667C11.6667 21.2246 11.8423 20.8007 12.1548 20.4882C12.4674 20.1756 12.8913 20 13.3333 20ZM26.6667 20C27.1087 20 27.5326 20.1756 27.8452 20.4882C28.1577 20.8007 28.3333 21.2246 28.3333 21.6667C28.3333 22.1087 28.1577 22.5326 27.8452 22.8452C27.5326 23.1577 27.1087 23.3333 26.6667 23.3333C26.2246 23.3333 25.8007 23.1577 25.4882 22.8452C25.1756 22.5326 25 22.1087 25 21.6667C25 21.2246 25.1756 20.8007 25.4882 20.4882C25.8007 20.1756 26.2246 20 26.6667 20Z" fill="#010101"/>
</svg>
